<?xml version="1.0" encoding="UTF-8" standalone="no"?>
<!-- Created with Inkscape (http://www.inkscape.org/) -->

<svg
   xmlns:dc="http://purl.org/dc/elements/1.1/"
   xmlns:cc="http://creativecommons.org/ns#"
   xmlns:rdf="http://www.w3.org/1999/02/22-rdf-syntax-ns#"
   xmlns:svg="http://www.w3.org/2000/svg"
   xmlns="http://www.w3.org/2000/svg"
   xmlns:sodipodi="http://sodipodi.sourceforge.net/DTD/sodipodi-0.dtd"
   xmlns:inkscape="http://www.inkscape.org/namespaces/inkscape"
   width="744.09448819"
   height="1052.3622047"
   id="svg2"
   version="1.1"
   inkscape:version="0.48.1 r9760"
   sodipodi:docname="dude.svg">
  <defs
     id="defs4" />
  <sodipodi:namedview
     id="base"
     pagecolor="#ffffff"
     bordercolor="#666666"
     borderopacity="1.0"
     inkscape:pageopacity="0.0"
     inkscape:pageshadow="2"
     inkscape:zoom="0.23948317"
     inkscape:cx="1069.6884"
     inkscape:cy="139.83499"
     inkscape:document-units="px"
     inkscape:current-layer="g3074"
     showgrid="false"
     inkscape:window-width="989"
     inkscape:window-height="709"
     inkscape:window-x="89"
     inkscape:window-y="10"
     inkscape:window-maximized="0" />
  <metadata
     id="metadata7">
    <rdf:RDF>
      <cc:Work
         rdf:about="">
        <dc:format>image/svg+xml</dc:format>
        <dc:type
           rdf:resource="http://purl.org/dc/dcmitype/StillImage" />
        <dc:title></dc:title>
      </cc:Work>
    </rdf:RDF>
  </metadata>
  <g
     inkscape:label="Layer 1"
     inkscape:groupmode="layer"
     id="layer1">
    <g
       id="g3074"
       transform="translate(-66.810538,-112.74279)">
      <g
         id="g3107"
         inkscape:export-filename="/Users/jacklaxson/Projects/SO-ENERGETIC/data/images/thedude.png"
         inkscape:export-xdpi="90"
         inkscape:export-ydpi="90">
        <path
           style="fill:#8c8c8c;fill-opacity:1"
           d="M 40.464877,1067.8872 C -24.405673,1056.8271 50.830686,979.12017 16.941093,941.7877 19.1046,875.80103 71.567478,828.1947 117.56566,787.7177 144.95852,755.93119 169.43033,668.54223 125.02632,653.62325 72.456775,663.79206 36.665749,711.97836 14.337725,757.46026 -0.41178808,801.01708 36.065324,861.84361 -8.6591257,893.11763 -71.907644,911.75149 -43.905009,824.27983 -21.312836,797.43633 -16.379586,755.21716 2.9330594,715.48387 35.283462,686.29077 55.736981,656.11281 109.77158,650.22788 122.02484,626.40316 97.397387,587.35541 9.9103153,611.40171 23.975542,542.89772 22.795508,480.41239 -18.174284,431.50603 -40.325993,378.86479 -51.530688,326.07274 -67.265938,274.26994 -79.327352,221.78596 -88.851173,167.87866 -26.103784,119.58561 8.029615,109.41192 -31.079017,132.94385 -24.283003,195.32575 9.9835688,218.40551 48.673087,196.08856 20.293495,136.49045 3.2703967,123.60518 59.266316,89.870767 37.589255,193.88902 54.536418,223.18855 77.9043,273.97117 82.50146,328.34641 91.84149,381.65191 c 3.257835,53.56518 -92.73737386,49.63037 -61.003577,111.72224 12.005142,44.65174 46.314599,143.04686 102.856357,82.69701 7.93551,-32.36315 20.95493,-101.90333 68.08308,-61.03349 17.70328,21.87369 8.16889,76.83398 50.12797,45.31387 39.28014,-43.4729 3.037,-111.70816 -55.44113,-93.60596 -64.42018,-2.48059 -98.123338,-69.29952 -90.20852,-127.37088 1.45121,-55.19806 15.50006,-108.62119 51.93606,-150.89118 -13.01424,-55.24489 47.90562,-74.31673 94.95161,-73.07604 75.54242,-7.95606 135.82274,66.03626 132.3737,138.02445 2.5685,67.78517 -34.09275,129.25128 -78.55598,177.16295 -15.43478,34.96457 -12.5984,108.20541 14.78092,122.62078 65.03604,-20.04995 62.06528,-92.67552 80.54712,-140.74896 42.42556,-3.3598 75.27167,-31.43955 118.15775,-37.72783 35.81192,-6.09935 71.41377,4.32925 105.40811,13.08054 62.59853,0.0834 119.95742,-51.71492 183.31539,-28.71188 45.82775,39.53111 -12.2089,95.8603 -24.71324,139.01675 -31.90644,57.27479 -60.64614,120.25941 -55.60526,187.38581 -10.26118,48.45585 -71.14205,43.71538 -81.92236,3.4929 -64.66591,-14.8833 -131.85611,-16.53619 -197.17043,-26.82811 -56.29519,5.45652 -91.04161,-37.76442 -86.18242,-87.52093 -35.66755,17.46329 -61.65201,59.59754 -63.03993,100.19554 -3.54365,65.78027 37.20352,124.0259 80.65614,168.88046 30.38472,10.39381 69.04189,87.87616 12.63535,73.01135 -37.87292,-17.14185 -58.58855,-122.36249 -106.05166,-78.37172 -27.97494,44.26617 -19.93893,112.02238 -71.29317,139.49981 -46.71394,-9.62625 0.67786,-84.59946 13.70723,-115.52785 35.3233,-53.70863 36.62022,-119.86246 28.59776,-181.54202 10.60904,-36.15815 -6.08318,-113.67011 -52.4212,-66.29149 -51.62647,51.8555 -18.84212,144.337 -82.25796,188.69162 -42.651454,38.3333 -88.732444,82.67292 -94.488294,142.97261 5.576603,36.74208 79.317664,-15.66947 79.716644,44.96445 -2.6564,31.90789 -31.272684,82.35519 -68.872673,76.75049 z m 7.97693,-14.9109 c 43.637382,-3.391 52.467493,-109.28864 1.900173,-56.2626 -10.125747,12.6393 -38.863609,61.0641 -1.900173,56.2626 z m -24.22752,-77.97127 c 0.264242,-5.05811 -3.713187,2.00725 0,0 z m 77.306873,-6.52646 c -2.616165,4.09091 -1.31955,2.06338 0,0 z M -14.842739,871.06804 c 23.7970368,-25.63336 -21.207449,-23.82571 0,0 z M 118.68366,652.50503 c -4.95648,0.56867 2.36112,4.96928 0,0 z m 493.46324,-8.47438 c 28.50027,43.68031 113.47255,-53.45031 46.49034,-36.55891 -16.74787,10.4529 -32.775,22.28999 -46.49034,36.55891 z m -21.37029,-3.36833 c 52.22202,-35.18121 109.95464,-74.98996 128.24324,-138.8142 -35.64354,21.69513 -85.59008,75.92163 -109.32128,81.26455 37.31298,-51.28893 101.28531,-74.71498 138.14868,-126.49513 31.80831,-25.72825 13.02759,-76.50586 -28.22756,-46.38358 -44.70883,6.24046 -105.5092,13.8926 -119.02196,65.63334 -12.21603,23.89367 30.4228,32.53897 21.25014,37.47768 -30.26617,30.29627 -57.50422,90.45827 -37.51065,128.20888 2.14646,-0.29718 4.29293,-0.59436 6.43939,-0.89154 z m 47.93768,-146.50175 c 7.12681,-5.81228 10.22563,-8.33952 0,0 z m 7,-9.56468 c 0.88477,-12.17467 9.70975,2.54531 0,0 z m 9.8125,-9.27397 c 2.10732,-3.93003 2.18869,2.81748 0,0 z m 37.1875,-34.35149 c 0.69346,-7.31728 5.00328,3.41679 0,0 z m 3,-2.9654 c 2.62298,-4.36399 4.59535,3.66563 0,0 z m 10,-5.9589 c 28.85308,-28.52333 28.45157,-5.01231 0,0 z m -271.01158,192.3424 c 51.103,5.05357 -0.17338,-83.64142 -12.66967,-28.5725 -5.57817,9.41783 -6.83229,39.8357 12.66967,28.5725 z M 172.33756,600.19265 c -11.70229,-15.6568 -12.93533,20.60152 0,0 z M 459.797,555.86078 c 18.45923,-44.356 -64.15552,5.36554 -9.38221,5.61941 1.7373,2.13072 14.99621,0.11343 9.38221,-5.61941 z m -8.96422,-45.85004 c -14.85113,-66.39905 106.72872,-12.08607 66.40538,-77.91971 -35.03051,-23.53688 -96.06603,32.03649 -76.6576,70.75183 l 4.36039,3.97776 z M 209.80659,436.55146 C 317.3626,404.71003 386.09738,265.02681 325.63738,165.12074 c -23.82127,-33.05969 -108.83087,-10.34203 -107.20916,7.947 52.63981,36.36735 -44.18871,30.92489 -45.89212,72.92075 -18.99286,52.38526 -41.31232,117.12387 -11.06502,169.53266 10.10386,16.0378 29.68178,24.5996 48.33551,21.03031 z m 350.9077,-11.82355 c 0.72713,-44.04654 -39.2762,16.8844 0,0 z M 14.34049,410.90029 c 61.314112,31.59127 62.666074,-110.18501 9.576265,-64.49394 -9.723854,19.09879 -22.3231429,43.74953 -9.576265,64.49394 z M -3.319644,352.19601 c 40.493725,-28.21176 -53.741157,-67.23878 -18.160082,-15.06233 1.976605,6.9258 10.925881,36.03336 18.160082,15.06233 z m 76.033931,-11.69098 c -1.836889,-9.4468 -0.978585,8.55854 0,0 z m -12.36163,-32 c 14.330632,-24.3817 -37.648895,-57.46015 -8.292102,-17.36319 l 3.483768,9.00632 z m -93.831498,-11.02646 c -2.616167,4.09091 -1.319549,2.06338 0,0 z m 5.645286,1.11514 c -8.422507,-8.95817 0.44687,6.65263 0,0 z m -4.452158,-25.72481 c 51.273383,-9.77858 -7.051074,-137.52029 -20.932957,-64.81657 -2.712486,23.11815 3.158294,48.70902 20.932957,64.81657 z m 72.50232,-44.86011 c 8.397962,-26.45719 -24.250689,-4.95494 0,0 z m -84.805106,-69.79547 c 8.685465,-10.12117 -7.439649,1.43736 0,0 z m 8.430341,-7.95829 c -0.517812,-3.39268 -5.832396,12.10016 0,0 z M 828.71429,390.06405 c -2.21073,-4.25468 4.12514,0.7348 0,0 z m -904.768,-231.05902 c 0.790043,-6.36933 0.790043,6.36933 0,0 z m -0.232003,-97.499998 c 1.651843,-6.331856 1.408924,5.359971 0,0 z"
           id="path3080"
           inkscape:connector-curvature="0"
           sodipodi:nodetypes="cccccccccccccccccccccccccccccccccccccccccccccccccccccccccccccccccccccccccccccccccccccccccccccccccccccccccccccccccccccccccccccccccccccccc" />
        <path
           style="fill:#606060;fill-opacity:1"
           d="m 31.407777,1064.5556 c -38.4933923,-25.7774 -5.554739,-115.12015 45.52464,-105.36785 24.876073,18.69803 -51.696302,29.2255 -46.437757,64.67095 0.798216,54.9842 53.951202,13.4778 56.52647,-20.2665 40.92231,-47.16676 -1.947199,73.2202 -39.542485,63.4569 l -7.737503,-0.4559 -8.333365,-2.0376 z M 207.0618,982.95254 c -25.79893,-60.06026 30.21428,-109.94826 46.39261,-163.83274 25.08296,-63.1589 -2.82277,-131.24139 9.95674,-196.08225 -28.83205,-69.22816 -96.49539,21.13232 -89.69366,65.29069 -8.71546,53.67098 -29.53892,113.80943 -82.46086,138.34517 -17.218889,17.70907 -62.100893,65.83486 -26.795935,14.8139 34.51581,-39.1717 90.969995,-72.64293 86.907725,-131.94432 C 165.56446,671.69005 132.80667,619.75647 95.538194,661.0498 38.998694,696.02447 -11.910217,762.93842 8.2799632,832.6366 55.023302,884.27639 -74.260619,918.7806 -45.344509,851.65454 -11.380467,800.39509 -15.950867,730.17536 32.387963,687.12058 52.178178,660.89169 139.62987,647.53067 114.87129,613.4222 49.72973,611.41852 11.320276,554.94744 18.808173,493.57591 -1.526517,434.08425 -52.689457,387.89167 -52.618841,321.00125 -56.777455,262.60009 -109.13152,192.95993 -47.632856,146.47065 -35.271825,132.6143 39.363429,83.701085 -6.3839308,123.18189 -36.239345,147.45174 -15.318555,216.07804 13.886575,224.32916 40.763654,195.37037 30.899104,124.79156 1.2153706,128.84071 29.626897,92.118371 49.983735,132.54568 39.163172,161.48635 c 13.509086,42.27399 -2.262682,75.84467 34.172481,107.30848 5.755183,14.17785 13.030774,77.32022 -2.482726,61.84411 5.870446,-17.26764 -34.735046,-92.74923 -24.820841,-41.8192 21.860605,37.28753 62.381834,92.99293 22.632033,131.44349 -64.1902347,15.13695 -42.771961,84.2032 -21.267971,126.51202 2.618508,64.85428 109.930882,63.29938 93.476182,-6.55415 4.63911,-47.19818 78.57966,-44.47707 63.92701,8.21956 29.22555,60.75636 85.86006,-20.16698 57.90387,-59.45099 -21.22878,-49.50596 -78.31536,-5.02003 -110.42641,-37.21822 -46.75363,-34.13472 -50.94403,-98.55044 -42.08027,-150.93734 -5.80639,-58.40881 71.26413,-101.89731 51.99524,-149.84769 38.28641,-41.43233 106.65573,-43.81685 156.18601,-21.94406 23.00637,12.13732 24.33199,35.21404 -4.85416,19.62829 -28.1389,-8.27848 -106.34766,4.52671 -95.16957,25.71967 31.88586,38.76634 -67.07083,53.01366 -58.05996,101.39535 -14.6596,47.77908 -31.58909,109.26956 8.18661,149.83304 57.78523,32.52281 116.73173,-21.69227 147.47057,-67.32327 37.59111,-55.40103 47.07025,-132.50188 13.0804,-191.88188 51.26355,-12.50753 58.14675,69.73777 53.89385,106.78226 -4.26718,57.51018 -32.88721,111.75216 -74.47595,151.12702 -16.23377,34.42692 -26.39065,127.46492 20.20393,127.98092 62.20843,-24.16466 55.9375,-103.12392 82.90228,-143.66364 52.12486,14.17961 90.59694,-54.17607 148.75495,-34.50686 35.62679,19.25861 76.92818,18.46795 114.90395,5.09129 41.97374,-9.96123 86.72365,-37.7122 129.6891,-19.76764 43.55522,42.43979 -5.64662,98.59043 -24.24451,141.26321 -29.35957,54.39446 -56.54967,112.73341 -56.30653,175.80053 -1.78969,36.24038 -61.3669,64.82981 -65.99426,13.79053 -60.16769,-25.50528 -129.32207,-13.23501 -191.44944,-29.71254 -39.39653,-1.53391 -103.42416,-11.18761 -99.09482,-63.27518 18.59233,-67.8569 -53.83298,7.05915 -59.24708,34.04776 -24.5494,58.52214 -3.40997,125.76884 36.13862,172.17321 18.17739,36.86666 100.80404,73.84757 66.711,115.90053 -50.78698,-5.83054 -53.35789,-76.27295 -95.02176,-93.77602 -56.71181,5.34533 -46.93194,77.60012 -68.47085,115.8101 -7.86486,18.19726 -21.52811,34.97847 -40.86235,41.4735 z M -15.593552,874.0742 c 36.145994,-25.38742 -29.262374,-48.27879 0,0 z M 605.94405,649.32388 c 37.52231,28.18793 114.14287,-42.75867 73.21253,-55.87216 -58.01195,22.50719 15.47662,-32.28167 24.45318,-51.03078 28.11014,-42.57469 38.39526,-92.1826 59.98074,-136.69613 -42.29205,-5.47736 -107.0746,10.66627 -147.28661,36.8556 -32.40033,54.17365 -23.89767,125.82752 -42.48416,186.70793 1.83485,16.80466 24.35279,9.06787 32.12432,20.03554 z m 26.77024,-33.16836 c 6.27898,-13.08807 8.82163,1.95094 0,0 z m -28,-31.15049 c 2.01975,-8.71584 5.34435,3.96567 0,0 z m 4.99688,-3.99417 c 6.1402,-12.41739 3.01761,7.41921 0,0 z m 6.08207,-3.58916 c 3.11211,-0.94276 -2.55793,4.76451 0,0 z m 13,-14 c 3.11211,-0.94276 -2.55793,4.76451 0,0 z m 61.42105,-47.41667 c 1.56705,-4.65707 1.69614,4.06759 0,0 z m 5.5,-0.57143 c -2.9087,-10.4884 8.30917,1.45668 0,0 z m 23.83541,-23.30569 c 3.57704,-15.98745 20.40915,-3.34894 0,0 z m -2.83541,-1.94142 c -0.89336,-6.75053 5.35014,0.9676 0,0 z m 17.25,-75.65568 c 0.95623,-9.16765 3.77274,4.86792 0,0 z m -274.6169,230.97422 c 34.26913,-9.16513 -12.7413,-3.67168 0,0 z m -25.32361,-18.98485 c 63.43172,0.37466 -8.85677,-95.4979 -19.60549,-26.38885 -2.3702,11.86382 2.96793,33.39384 19.60549,26.38885 z m -258.40957,-5.32815 c 13.61846,-18.02133 24.17903,-93.2097 6.5792,-35.22017 -22.52714,14.46054 -48.40844,20.24156 -8.33221,26.64936 l 2.50147,3.948 z m -20.23325,-6.64301 c -2.93776,-3.5681 0.56093,5.02306 0,0 z m 306.63777,-63.12624 c 8.42425,-52.59837 -73.01679,13.46373 -14.59845,10.82714 6.82876,6.21643 22.72882,-2.12677 14.59845,-10.82714 z m -288.73551,7.90127 c 15.09475,-12.00825 -2.15251,-13.27675 0,0 z m 543.77315,-10.76809 c -3.69652,-4.31225 -1.04633,6.18823 0,0 z M 186.7296,539.64924 c 16.21591,1.17541 -7.29239,-4.36023 0,0 z m 269.39955,-30.15591 c -10.01987,-28.16499 22.10667,-60.85254 44.57539,-30.99479 58.52007,-10.59664 -2.78048,-92.30135 -32.93038,-42.63478 -23.65471,9.8003 -57.47016,71.0846 -11.64501,73.62957 z m 281.08514,-34.4883 c -1.87707,-5.60941 -2.36621,4.45906 0,0 z m 12.45075,-3.15469 c -5.9832,-4.83506 -0.62827,12.05265 0,0 z m -193.95075,-1.75541 c 11.80436,-14.01739 -6.58909,-24.85907 0,0 z m 5.31587,-41.38783 c 18.78535,-35.07337 -55.2981,1.26242 -3.17666,1.15216 z M 22.190846,411.01394 c 66.237923,21.40106 45.242687,-116.43729 2.042039,-66.44346 -8.970918,15.25292 -36.283281,64.78817 -2.042039,66.44346 z m -36.676559,-21.20891 c 17.6028574,-18.05442 -14.573314,1.53935 0,0 z m 618.700003,-0.8 c -0.38113,-6.06153 -4.18964,2.99019 0,0 z M -5.873244,365.40025 c 41.505583,-20.47675 -31.286112,-96.05094 -22.773378,-33.62986 5.455926,12.48463 13.484776,23.71647 22.773378,33.62986 z m -17.228152,-66.32854 c -10.099943,-16.72673 -16.341894,16.00813 0,0 z m -10.684317,-24.54594 c 63.011413,-14.78506 -16.974303,-152.5723 -25.091138,-58.47292 -0.637773,21.75526 7.011118,45.13878 25.091138,58.47292 z m 73.5,-80.62773 c -4.296941,-5.22986 -1.81357,6.80495 0,0 z m -80.165234,-36.78136 c 14.46763,-26.95942 -25.968092,25.59909 0,0 z m 61.245695,793.4853 c -3.534776,-5.06004 6.29439,-4.89292 0,0 z m 2.377656,-10.36226 c -12.039948,-10.16001 8.13245,-4.72995 0,0 z m 3.106173,-8.52782 c 1.440698,-7.04509 1.810061,2.58403 0,0 z m -0.89023,-11.44056 c -0.700357,-6.13172 6.631658,3.16861 0,0 z m -0.0234,-8.73428 c -2.847018,-14.06941 5.169599,3.09005 0,0 z m 4.34934,-9.53203 c -8.124351,-9.4433 13.691256,-9.97435 0,0 z m 3,0 c 1.567052,-4.65707 1.696142,4.06759 0,0 z m -2.38691,-12.18298 c 3.178547,-3.18488 1.427317,4.12882 0,0 z m 3.64881,-4.5075 c 12.042168,-9.86797 -2.266035,7.09264 0,0 z m 26.30408,-15.20276 c -2.789227,-5.95419 5.947863,0.49539 0,0 z m 7.70824,-14.65371 c -2.190871,-18.29139 8.903908,-2.49084 0,0 z m 4.97726,-10.70748 c 4.011688,-7.30298 4.708828,6.71398 0,0 z M 135.85253,652.3893 c -6.01588,-12.61531 10.73294,5.32108 0,0 z M -76.186033,259.58836 c -0.387705,-33.82383 2.306017,28.62382 0,0 z"
           id="path3078"
           inkscape:connector-curvature="0"
           sodipodi:nodetypes="ccccccccccccccccccccccccccccccccccccccccccccccccccccccccccccccccccccccccccccccccccccccccccccccccccccccccccccccccccccccccccccccccccccccccccccccccccccccccccccccccccccccccccccc" />
        <path
           style="fill:#333333;fill-opacity:1"
           d="m 47.112787,1063.1474 c -66.793433,1.1875 0.418212,-104.87516 7.293617,-86.22107 -38.559408,15.90715 -24.762824,108.83087 16.911328,57.45487 11.962441,-22.9014 35.226918,-30.4652 15.925732,0.2033 -7.34271,15.0905 -21.616346,31.0068 -40.130677,28.5629 z M 205.95806,981.27823 c -19.6873,-87.86745 78.19737,-152.28375 60.05832,-240.0346 -6.0857,-43.86394 11.61892,-96.7292 -20.6486,-133.06479 -27.9759,-30.70219 -76.83257,57.89142 -61.84339,-9.43953 19.56867,-40.94268 108.42351,-27.53032 85.0186,-93.33706 -11.78247,-65.77234 -97.74492,-26.05357 -130.30351,-68.08444 -46.811181,-55.32752 -29.64615,-135.02874 -9.77661,-197.62095 7.21164,-36.24703 69.85608,-85.8006 84.74413,-47.62076 -49.01389,52.30822 -82.84252,126.08036 -67.87152,198.5485 17.16036,67.08259 111.88682,50.43333 144.04274,4.09203 57.37268,-56.26969 83.81116,-148.41247 47.05989,-222.88758 56.0755,37.81621 49.31996,118.68776 24.47599,173.03506 -30.29898,49.78357 -78.07974,99.42499 -68.07225,162.57793 -4.51701,72.04285 97.09392,40.93935 91.37904,-16.69829 1.1784,-68.89887 61.91908,-94.3637 119.30085,-105.95892 52.24598,-18.22847 103.34121,18.50291 154.81517,2.60541 43.66887,-10.42934 91.14074,-38.56879 135.59461,-17.36209 48.35996,44.12233 -8.94747,105.4554 -27.79075,150.75507 -26.7286,52.27538 -43.64698,109.84836 -47.17102,168.55776 -34.55304,57.39209 -78.32602,-29.45321 -122.39182,-13.62452 -35.52916,-8.50743 -98.69393,-8.21678 -116.11943,-27.36675 23.28657,-20.78876 25.02172,-28.29997 -4.93213,-10.61499 -44.30621,26.27434 -122.61596,-2.42196 -106.09685,-61.94878 -49.23997,-5.90898 -66.04462,61.43075 -73.83302,99.59583 -5.51976,76.69965 52.5478,135.929 100.77097,187.68168 31.6141,20.587 12.08098,68.59224 -18.23654,30.83006 -20.31141,-41.64068 -83.60335,-102.86496 -109.15959,-30.8106 -17.5736,40.28994 -12.05684,101.98498 -63.01328,118.19532 z M 694.71429,722.61202 c -1.22882,-5.98068 -3.77137,4.63067 0,0 z m -1,-15.72502 c -4.97629,-2.60479 1.92007,5.76877 0,0 z m -129,-30.25953 c 2.19316,-6.05046 -5.65854,2.06345 0,0 z m 35.6851,-24.41979 c 53.3036,18.1868 98.24571,-35.44767 103.46932,-84.36587 -3.54202,-57.25239 67.72914,-87.64672 63.13585,-146.63741 -24.59103,-58.11461 -104.04374,-6.06464 -141.8975,15.30319 -50.32787,44.98175 -30.14397,119.10113 -52.52613,176.14729 -6.86265,20.02856 4.39001,43.07819 27.81846,39.5528 z m 68.3149,-60.20265 c 0.78474,-5.40302 2.1579,4.17246 0,0 z M 698.17496,409.9414 c 4.44571,-6.65066 2.48825,8.24743 0,0 z M 432.36113,628.61744 c 84.66787,-16.56143 -52.87022,-87.78297 -17.25853,-3.63169 3.89319,4.95125 11.66762,7.61466 17.25853,3.63169 z m 28.85316,-14.61241 c 0.78474,-5.40302 2.1579,4.17246 0,0 z m 228.5,-39 c -2.2195,-4.12861 -0.75395,5.32795 0,0 z m -233,-10 c -7.66777,-1.51328 3.3189,9.92527 0,0 z m 8.75,-1.83383 c -22.04905,-39.86476 91.05762,-34.10757 20.57252,-43.37023 -33.70552,-7.50894 -91.16388,50.00248 -20.57252,43.37023 z m 249.9787,-10.34941 c 29.71779,-14.73837 -17.12372,0.8974 0,0 z M 544.72045,542.25503 c 20.96953,-13.40246 -14.43518,-17.09772 0,0 z m -96.00616,-28.40217 c 20.95293,-5.96281 18.47946,-69.16201 45.04157,-32.80359 24.71321,-13.98839 57.16137,-43.88514 71.80702,-41.6014 -6.68225,-56.52556 -79.27913,-22.25097 -105.78234,1.03677 -23.51904,16.17029 -44.5243,54.50474 -11.06625,73.36822 z m 106.61069,-109.26187 -0.19562,-1.29089 0.19562,1.29089 z m 44.88931,-10.58596 c -2.2195,-4.12861 -0.75395,5.32795 0,0 z m -53.5,-2.96832 c -4.0278,-6.61983 -2.41527,7.12822 0,0 z m 185.5,-0.0317 c -0.50674,-6.5602 -3.19726,4.49308 0,0 z m 14.5,-1.44098 c 0.0542,-5.16184 -3.51187,3.44013 0,0 z m -202,-3 c -2.6309,-11.03203 -4.98564,14.31739 0,0 z m 254,-16.02384 -2.55703,-1.45041 2.55703,1.45041 z m -60,-0.97616 c 0.0542,-5.16184 -3.51187,3.44013 0,0 z m 11.80687,-2.08548 c -2.1234,3.32187 -1.81346,2.8339 0,0 z M 339.71429,168.00503 c -1.93184,-5.30612 -1.93184,5.30612 0,0 z M -36.285713,897.47771 C -54.837512,830.21378 -1.9373413,774.0124 14.206706,712.49032 49.09153,665.44618 109.35204,649.77962 150.87009,610.53691 c 41.17698,37.91685 10.44071,99.61065 3.71026,145.93865 -2.11309,26.03134 -75.490396,82.51373 -32.17554,31.04789 24.19602,-34.9785 64.60767,-135.50215 -4.82118,-137.71534 C 43.298331,675.08862 -13.242382,759.07146 7.8136505,838.0002 11.36297,864.08568 -3.3422682,904.35458 -36.285713,897.47771 z m 21.295455,-21.79777 c 42.168609,-33.86669 -46.217541,-31.76612 0,0 z m 82.340715,-36.16917 c 3.224168,-5.77815 0.647577,6.09122 0,0 z m 3.61383,-1.22402 c -7.48572,-12.35152 14.230617,-1.91411 0,0 z M 726.56759,678.3356 c -4.34904,-13.03061 11.69641,5.59046 0,0 z M 173.94821,661.56069 c 7.95506,-3.361 -6.49509,-5.04447 0,0 z m 277.26608,-5.55566 c 2.2195,-4.12861 0.75395,5.32795 0,0 z m 16.5,-10 c 1.93184,-5.30612 1.93184,5.30612 0,0 z M 96.456367,607.9205 C 37.372478,603.89637 22.006891,535.71655 15.805785,487.64502 0.92271125,430.56939 -49.544909,386.80103 -50.229381,325.23531 -58.767864,273.45779 -92.583656,213.61778 -54.84468,165.64291 -11.983062,136.81495 -7.4894228,267.8011 27.304225,202.24446 30.53168,186.66325 21.71748,129.42859 34.001481,138.48554 25.049242,195.89947 52.397747,249.88582 75.546849,300.47327 68.185905,342.0045 63.268794,227.78739 31.047297,268.499 49.188625,310.41937 104.38586,352.06774 73.119524,401.60422 26.485294,444.79717 7.7581304,513.33293 52.275252,566.20944 58.81653,581.68748 97.809953,607.84298 96.456367,607.9205 z M 19.964287,412.72144 c 69.151551,38.35012 44.858015,-128.88277 1.23795,-58.41188 -8.401083,15.83358 -37.349378,55.82193 -1.23795,58.41188 z m 55.17857,-3.28784 c 3.863953,-12.08315 -10.284326,10.03534 0,0 z m -2.92857,-6.42857 c -3.246173,-4.44887 -0.483516,6.50574 0,0 z m -85.797528,-12.25 c 18.0387857,-7.2873 -9.872263,-8.71694 0,0 z m 19.608405,-13.0438 c 21.729111,-19.27009 -12.2302596,1.17787 0,0 z M -6.827427,369.85435 C 51.38776,353.06996 -47.077089,262.37452 -31.22047,332.53577 c 6.735504,13.28797 15.246574,25.59131 24.393043,37.31858 z m -25.270786,-64.91182 c -1.403922,-7.75398 5.533279,4.23895 0,0 z m 43.8125,56.66949 c -2.8320996,-4.84371 -2.2600883,5.94797 0,0 z m 67.24377,-24.3293 c 7.578078,-7.3751 -7.274672,-2.47424 0,0 z M -39.583676,276.63633 c 73.219538,-1.19343 0.261234,-147.7433 -21.36157,-63.52891 -1.350646,22.84225 6.203864,46.28157 21.36157,63.52891 z M 112.16629,602.92737 c 32.28611,-15.17453 35.75002,-116.36183 79.11768,-76.43975 -26.08892,24.04305 -28.32418,96.85301 -79.11768,76.43975 z m 40.46946,-24.17234 c 5.85205,-22.13712 -12.6015,10.637 0,0 z m 18.57854,-57.75 c 2.42686,-9.23146 -7.06785,6.4181 0,0 z m 0.75,69.33772 c -18.37367,-22.46754 37.24243,-49.84951 7.29504,-11.14599 l -3.33724,5.24416 -3.9578,5.90183 z m 30.42885,-37.04833 c -5.80418,-5.1378 6.98625,-0.25771 0,0 z M -16.285713,431.94601 c 3.511869,-3.44013 -0.05423,5.16184 0,0 z m 392.083333,-187.22395 2.45218,-1.49024 -2.45218,1.49024 z M 50.214287,229.97873 c -35.339165,-22.44487 18.46595,-36.09242 0,0 z m 323.000003,-4.9737 c 0.78474,-5.40302 2.1579,4.17246 0,0 z M -76.206766,213.4217 c 3.603624,1.47532 -5.218726,3.07047 0,0 z M 42.714287,192.50503 c 2.458368,-5.03098 0.377599,7.17421 0,0 z M 173.76302,171.5569 c -0.3582,-63.75665 104.33663,-73.610346 134.49914,-33.21016 -40.29893,19.18107 -92.37681,11.12075 -134.49914,33.21016 z m 144.95127,-34.55187 c -2.2195,-4.12861 -0.75395,5.32795 0,0 z m -387.000003,32 c -2.843319,-9.32225 7.247552,1.64772 0,0 z m 10.875,-5.5 c -6.636446,-15.14387 18.375796,-2.44344 0,0 z m 7.157757,-11.22839 c 6.108514,-15.58972 11.105646,3.49437 0,0 z m 14.967243,-9.28692 c -3.724506,-6.28109 6.646904,2.80888 0,0 z m 4,-2.89425 c 2.136764,-11.24987 15.090562,6.77109 0,0 z m 30.5,-25.09044 c 2.2195083,-4.12861 0.75395151,5.32795 0,0 z m 27.85588,-4.2332 c 5.846981,-4.54853 -0.849612,9.77307 0,0 z M 6.442301,109.32156 c -6.04981836,-9.834798 9.179852,-1.94066 0,0 z"
           id="path3076"
           inkscape:connector-curvature="0" />
      </g>
    </g>
  </g>
</svg>
